<svg xmlns="http://www.w3.org/2000/svg" xmlns:xlink="http://www.w3.org/1999/xlink" preserveAspectRatio="xMidYMid" width="168" height="24" viewBox="0 0 168 24">
  <defs>
    <style>
      .cls-1 {
        fill: #00aef0;
      }

      .cls-1, .cls-2, .cls-3, .cls-4 {
        fill-rule: evenodd;
      }

      .cls-2 {
        fill: #000;
      }

      .cls-3 {
        fill: #e53935;
      }

      .cls-4 {
        fill: #fff;
      }
    </style>
  </defs>
  <g id="artboard-1">
    <path d="M70.013,22.991 L48.994,22.991 L48.994,1.002 L69.873,1.002 L70.013,22.991 ZM65.000,3.000 L54.000,3.000 L54.000,10.000 L65.000,10.000 L65.000,3.000 ZM68.000,3.000 L67.000,3.000 L67.000,10.000 C67.000,10.921 65.868,12.000 65.000,12.000 L54.000,12.000 C53.132,12.000 52.000,10.921 52.000,10.000 L52.000,3.000 L51.000,3.000 L51.000,21.000 L68.000,21.000 L68.000,3.000 ZM59.000,3.000 L63.000,3.000 L63.000,8.000 L59.000,8.000 L59.000,3.000 Z" class="cls-1"/>
    <path d="M19.985,18.864 L17.864,20.985 L11.500,14.621 L5.136,20.985 L3.015,18.864 L9.379,12.500 L3.015,6.136 L5.136,4.015 L11.500,10.379 L17.864,4.015 L19.985,6.136 L13.621,12.500 L19.985,18.864 Z" class="cls-2"/>
    <path d="M141.000,5.000 L141.000,22.003 C141.000,23.077 139.211,24.000 138.001,24.000 L126.002,24.000 C124.793,24.000 123.002,23.074 123.002,22.000 L123.002,5.000 L121.003,4.997 L121.003,2.001 L128.002,2.001 L128.002,1.438 C128.002,0.643 128.676,-0.000 130.002,-0.000 L134.001,-0.000 C135.323,-0.000 136.036,0.646 136.036,1.438 L136.036,2.001 L143.000,2.001 L143.000,5.000 L141.000,5.000 ZM139.001,5.001 L125.002,5.001 L125.002,22.003 L139.001,22.006 L139.001,5.001 ZM129.002,20.000 L127.002,20.000 L127.002,7.000 L129.002,7.000 L129.002,20.000 ZM133.002,20.000 L131.002,20.000 L131.002,7.000 L133.002,7.000 L133.002,20.000 ZM137.002,20.000 L135.002,20.000 L135.002,7.000 L137.002,7.000 L137.002,20.000 Z" class="cls-3"/>
    <path d="M114.000,9.000 L104.000,9.000 L102.930,9.000 L102.336,8.109 L100.930,6.000 L98.000,6.000 L98.000,16.500 L100.000,11.000 L120.000,11.000 L116.000,22.000 L96.000,22.000 L96.000,4.000 L102.000,4.000 L104.000,7.000 L116.000,7.000 L116.000,9.000 L116.000,10.000 C115.363,10.000 114.637,10.000 114.000,10.000 L114.000,9.000 ZM114.000,20.000 C114.200,20.000 114.399,20.000 114.599,20.000 L117.145,13.000 L101.401,13.000 L98.855,20.000 L114.000,20.000 Z" class="cls-3"/>
    <path d="M45.969,2.031 C44.594,0.656 43.219,0.656 41.844,2.031 L41.500,2.375 L45.625,6.500 L45.969,6.156 C47.344,4.781 47.344,3.406 45.969,2.031 ZM26.375,17.500 L25.000,23.000 L30.500,21.625 L44.250,7.875 L40.125,3.750 L26.375,17.500 ZM30.500,18.875 L29.125,17.500 L40.125,6.500 L41.500,7.875 L30.500,18.875 Z" class="cls-2"/>
    <path d="M156.000,23.000 C149.925,23.000 145.000,18.117 145.000,12.094 C145.000,7.081 148.416,2.868 153.062,1.593 L153.062,3.500 C149.536,4.719 147.000,8.060 147.000,12.000 C147.000,16.971 151.029,21.000 156.000,21.000 C160.971,21.000 165.000,16.971 165.000,12.000 C165.000,8.060 162.464,4.719 158.937,3.500 L158.937,1.593 C163.584,2.868 167.000,7.081 167.000,12.094 C167.000,18.117 162.075,23.000 156.000,23.000 ZM155.000,-1.000 L157.000,-1.000 L157.000,12.000 L155.000,12.000 L155.000,-1.000 Z" class="cls-4"/>
    <path d="M93.000,13.000 L84.000,13.000 L84.000,22.000 L81.000,22.000 L81.000,13.000 L72.000,13.000 L72.000,10.000 L81.000,10.000 L81.000,1.000 L84.000,1.000 L84.000,10.000 L93.000,10.000 L93.000,13.000 Z" class="cls-1"/>
  </g>
</svg>
